<!-- design-a-shield-R.svg -->
<svg xmlns="http://www.w3.org/2000/svg" viewBox="0 0 64 64" width="64" height="64">
  <rect width="64" height="64" rx="10" fill="#2a2421"/>
  <path d="M32 6 L50 14 v12 c0 12-10 22-18 26 -8-4-18-14-18-26 V14 L32 6z"
        fill="#413b35" stroke="#5a4f45" stroke-width="1.6"/>
  <!-- R negative cut-out -->
  <g transform="translate(18,14)">
    <path d="M0 0h14c3.5 0 6 2.5 6 6 0 2.8-1.9 4.8-4.8 5.4 2 0.6 3.8 2 3.8 4.6 0 3.6-3.1 6.4-7.7 6.4H0V0zM4 4v20h6.2c3 0 4.8-1.6 4.8-4 0-2-1.4-3.2-3.8-3.2H8v-9h8.6c1.8 0 3-1 3-2.6 0-1.8-1.6-2.4-3.4-2.4H4z"
          fill="#2a2421"/>
  </g>
  <!-- accent highlight -->
  <circle cx="48" cy="16" r="3" fill="#be9b7b"/>
</svg>
