<svg xmlns="http://www.w3.org/2000/svg" version="1.1" xmlns:xlink="http://www.w3.org/1999/xlink" xmlns:svgjs="http://svgjs.dev/svgjs" width="100%" height="100%" viewBox="0 0 1000 600"><rect width="1000" height="600" x="0" y="0" fill="#4a171e"/><g><rect width="333.3333333333333" height="333.3333333333333" rx="13.333333333333334" ry="13.333333333333334" y="156.25920424988988" fill="#E2V144" transform="matrix(0.9325783354797258,0,0,0.9325783354797257,0,-1.1536831411813608)" x="134.03697204589844"/><path d="M363.85675344568415 397.9258773561272L234.16137237689472 397.9258773561272Q232.2549773681841 397.9258773561272 232.2549773681841 394.294648768107Q232.2549773681841 390.69368041832024 233.94955070926022 388.7872854096096L233.94955070926022 388.7872854096096L333.41495378278114 260.15101267899274Q333.8385971180502 259.6365886290232 333.8385971180502 258.8195621967187Q333.8385971180502 258.0327960026476 331.720380441705 258.0327960026476L331.720380441705 258.0327960026476L267.1450320514118 258.0327960026476Q258.30904248722925 258.0327960026476 252.7714188904984 264.08484364934804L252.7714188904984 264.08484364934804Q250.8650238817878 266.11227961099263 249.95721673478275 268.7146600990738Q249.0494095877777 271.31704058715496 247.8390000584376 277.6111701397234Q246.59833029086403 283.8750394540583 246.174686955595 284.3592032657943Q245.75104362032596 284.8433670775304 244.20777147041736 284.8433670775304Q242.66449932050878 284.8433670775304 242.24085598523976 284.2079020746268L242.24085598523976 284.2079020746268L243.84464861161536 251.5268447824447Q243.84464861161536 247.92587643265796 246.29572790852902 247.92587643265796L246.29572790852902 247.92587643265796L361.82931748403945 247.92587643265796Q363.5238908251156 247.92587643265796 363.5238908251156 251.31502311481017Q363.5238908251156 254.7344300351959 362.13191986637446 256.7618659968406L362.13191986637446 256.7618659968406L266.5095670485083 380.46571989539655Q266.1767044279398 381.0104041835996 265.26889728093477 382.2813341894067Q264.3610901339297 383.55226419521375 264.3610901339297 384.42981110398534L264.3610901339297 384.42981110398534Q264.3610901339297 387.2742734979345 269.263248727757 387.2742734979345L269.263248727757 387.2742734979345L344.27837930860835 387.2742734979345Q349.36209933183665 387.2742734979345 354.59712054623253 382.9773196687772Q359.80188152239486 378.68036583962 362.10165962814096 371.448168901813Q364.3711774956536 364.21597196400603 365.21846416619167 353.98801144108234L365.21846416619167 353.98801144108234Q365.5513267867602 352.38421881470674 367.3669410807703 352.38421881470674Q369.15229513654697 352.38421881470674 369.15229513654697 353.6551488205139L369.15229513654697 353.6551488205139L369.15229513654697 358.67834836727513L366.9130375072678 391.6620080417923Q366.82225679256726 392.81189709466537 366.82225679256726 393.87100543283793L366.82225679256726 393.87100543283793Q366.82225679256726 397.9258773561272 363.85675344568415 397.9258773561272L363.85675344568415 397.9258773561272Z " fill="#4a171e" transform="matrix(0.9325783354797258,0,0,0.9325783354797257,0,-1.1536831411813608)"/><path d="M591.6104033093609 397.9258811708245L551.5967924069325 397.9258811708245Q550.703631449289 397.7472489792958 550.703631449289 396.6754558301236L550.703631449289 396.6754558301236Q550.703631449289 395.0422472218612 554.9142473924655 394.5063506472751L554.9142473924655 394.5063506472751Q564.6114235040234 393.07729311504556 564.6114235040234 384.29879684563525L564.6114235040234 384.29879684563525L564.6114235040234 336.83367166800974Q564.6114235040234 333.0568767614029 560.4773642143592 331.6278192291734L560.4773642143592 331.6278192291734Q558.6910422990723 330.9898471165709 556.6240126542401 330.60706384900936Q554.556983009408 330.19876169694373 553.3575954377154 329.8414973138864Q552.1326889815186 329.48423293082897 551.8264623674694 329.15248743227573Q551.5202357534201 328.8462608182265 551.5202357534201 327.82550543806246Q551.5202357534201 326.77923117339446 552.8472177476334 326.0647024072796L552.8472177476334 326.0647024072796L575.7376571478109 315.29573314654954Q576.809450296983 314.75983657196343 577.0901580265281 314.75983657196343L577.0901580265281 314.75983657196343Q578.59577221227 314.75983657196343 578.59577221227 316.90342287030785L578.59577221227 316.90342287030785L578.59577221227 384.29879684563525Q578.59577221227 393.07729311504556 588.2929483238279 394.5063506472751L588.2929483238279 394.5063506472751Q592.5035642670043 395.0422472218612 592.5035642670043 396.39474810057845Q592.5035642670043 397.7472489792958 591.6104033093609 397.9258811708245L591.6104033093609 397.9258811708245ZM570.3021347484375 289.5471786819129Q566.576377610839 289.5471786819129 563.7437814308839 287.2249601920398Q560.936704135433 284.87722281766264 560.936704135433 280.7176446434944Q560.936704135433 276.53254758482205 563.6161870083635 274.10825355693254Q566.3211887657981 271.7094784135472 570.0469459033966 271.7094784135472Q573.7471841564911 271.7094784135472 576.3245914914052 274.5675934780063Q578.8764799418151 277.4512274269696 578.8764799418151 280.7686824125026Q578.8764799418151 284.08613739803553 576.4521859139256 286.8166580399742Q574.0278918860362 289.5471786819129 570.3021347484375 289.5471786819129ZM714.8921343486667 397.9258811708245L605.5181953640952 397.9258811708245Q603.910505640337 397.9258811708245 603.910505640337 394.86361503033254Q603.910505640337 391.8268677743446 605.3395631725665 390.2191780505864L605.3395631725665 390.2191780505864L689.2201365375423 281.73840002365836Q689.5774009205998 281.30457898708863 689.5774009205998 280.61556910547796Q689.5774009205998 279.9520781083714 687.7910790053128 279.9520781083714L687.7910790053128 279.9520781083714L633.3337794735639 279.9520781083714Q625.8822651983668 279.9520781083714 621.2123093341165 285.05585500919136L621.2123093341165 285.05585500919136Q619.6046196103582 286.765620270966 618.8390530752353 288.96024433831855Q618.0734865401123 291.15486840567115 617.0527311599483 296.4627963825239Q616.0064568952803 301.74520547487253 615.6491925122228 302.15350762693816Q615.2919281291654 302.56180977900374 613.9904650194563 302.56180977900374Q612.6890019097473 302.56180977900374 612.3317375266898 302.02591320441763L612.3317375266898 302.02591320441763L613.6842384054071 274.4655179399899Q613.6842384054071 271.4287706840021 615.7512680502392 271.4287706840021L615.7512680502392 271.4287706840021L713.182369086892 271.4287706840021Q714.6114266191215 271.4287706840021 714.6114266191215 274.28688574846126Q714.6114266191215 277.17051969742454 713.4375579319329 278.88028495919923L713.4375579319329 278.88028495919923L632.7978828989778 383.20148481195895Q632.5171751694327 383.66082473303265 631.7516086343097 384.73261788220486Q630.9860420991868 385.8044110313771 630.9860420991868 386.54445868199593L630.9860420991868 386.54445868199593Q630.9860420991868 388.9432338253814 635.1201013888509 388.9432338253814L635.1201013888509 388.9432338253814L698.3814160745142 388.9432338253814Q702.6685886712029 388.9432338253814 707.0833556904122 385.31955222579916Q711.4726038251173 381.695870626217 713.412039047429 375.5968572297372Q715.3259553852364 369.4978438332573 716.0404841513512 360.8724608708717L716.0404841513512 360.8724608708717Q716.3211918808962 359.5199599921543 717.8523249511422 359.5199599921543Q719.357939136884 359.5199599921543 719.357939136884 360.59175314132654L719.357939136884 360.59175314132654L719.357939136884 364.82788796900707L717.4695416835807 392.64347207847584Q717.3929850300684 393.61318968963167 717.3929850300684 394.5063506472751L717.3929850300684 394.5063506472751Q717.3929850300684 397.9258811708245 714.8921343486667 397.9258811708245L714.8921343486667 397.9258811708245ZM774.2745785897067 397.9258811708245L734.2609676872784 397.9258811708245Q733.3678067296348 397.7472489792958 733.3678067296348 396.6754558301236L733.3678067296348 396.6754558301236Q733.3678067296348 395.0422472218612 737.5784226728114 394.5063506472751L737.5784226728114 394.5063506472751Q747.2755987843692 393.07729311504556 747.2755987843692 384.29879684563525L747.2755987843692 384.29879684563525L747.2755987843692 336.83367166800974Q747.2755987843692 333.0568767614029 743.1415394947051 331.6278192291734L743.1415394947051 331.6278192291734Q741.3552175794181 330.9898471165709 739.2881879345861 330.60706384900936Q737.2211582897539 330.19876169694373 735.9962518335572 329.8414973138864Q734.7968642618645 329.48423293082897 734.4906376478152 329.15248743227573Q734.158892149262 328.8462608182265 734.158892149262 327.82550543806246Q734.158892149262 326.77923117339446 735.5113930279792 326.0647024072796L735.5113930279792 326.0647024072796L758.4018324281567 315.29573314654954Q759.4736255773289 314.75983657196343 759.7288144223699 314.75983657196343L759.7288144223699 314.75983657196343Q761.2599474926159 314.75983657196343 761.2599474926159 316.90342287030785L761.2599474926159 316.90342287030785L761.2599474926159 384.29879684563525Q761.2599474926159 393.07729311504556 770.9571236041737 394.5063506472751L770.9571236041737 394.5063506472751Q775.1677395473502 395.0422472218612 775.1677395473502 396.39474810057845Q775.1677395473502 397.7472489792958 774.2745785897067 397.9258811708245L774.2745785897067 397.9258811708245ZM752.9663100287835 289.5471786819129Q749.2405528911848 289.5471786819129 746.4079567112298 287.2249601920398Q743.6008794157789 284.87722281766264 743.6008794157789 280.7176446434944Q743.6008794157789 276.53254758482205 746.2803622887094 274.10825355693254Q748.9598451616398 271.7094784135472 752.6856022992384 271.7094784135472Q756.411359436837 271.7094784135472 758.9632478872469 274.5675934780063Q761.540655222161 277.4512274269696 761.540655222161 280.7686824125026Q761.540655222161 284.08613739803553 759.1163611942715 286.8166580399742Q756.692067166382 289.5471786819129 752.9663100287835 289.5471786819129ZM835.0095237094641 396.49682363859483L835.0095237094641 396.49682363859483Q835.0095237094641 397.9258811708245 833.4018339857058 397.9258811708245L833.4018339857058 397.9258811708245L784.1503868927933 397.9258811708245Q783.2317070506457 397.7472489792958 783.2317070506457 396.6754558301236L783.2317070506457 396.6754558301236Q783.2317070506457 395.0422472218612 787.4678418783263 394.5063506472751L787.4678418783263 394.5063506472751Q797.1394991053801 393.07729311504556 797.1394991053801 384.29879684563525L797.1394991053801 384.29879684563525L797.1394991053801 329.9180539673987Q797.1394991053801 328.92281747173877 796.067705956208 328.92281747173877L796.067705956208 328.92281747173877L786.2939731911378 328.92281747173877Q785.2221800419655 328.92281747173877 784.2269435463056 328.2593264746322Q783.2317070506457 327.5958354775256 783.2317070506457 326.4730045593452Q783.2317070506457 325.3501736411648 784.329019084322 324.71220152856233L784.329019084322 324.71220152856233Q785.8346332700639 323.8190405709189 791.499825629974 322.2879075006729Q797.1394991053801 320.78229331493094 797.1394991053801 317.2606872533652L797.1394991053801 317.2606872533652L797.1394991053801 314.3004966508896Q797.1394991053801 282.01910775320346 811.1493666981308 264.6152285214074L811.1493666981308 264.6152285214074Q818.9581453563854 254.84149575633725 834.9074481714478 249.5335677794845L834.9074481714478 249.5335677794845Q839.7560362272267 247.92587805572623 844.5280676294933 247.92587805572623Q849.2745801472558 247.92587805572623 855.6543012732808 250.40120985262388Q862.0085035148016 252.85102276501746 862.0085035148016 256.3471099420791L862.0085035148016 256.3471099420791Q862.0085035148016 257.0616387081939 861.7788335542647 257.6230541672841Q861.5746824782319 258.15895074187017 861.2939747486868 258.95003616149734L861.2939747486868 258.95003616149734L857.6192553800964 266.8608903577682Q856.9047266139816 268.28994788999785 855.9094901183217 268.28994788999785L855.9094901183217 268.28994788999785Q855.6543012732808 268.28994788999785 852.0561385582026 265.45735171004276Q848.4579758431247 262.62475553008767 844.4770298604851 260.2514992712064Q840.4705649933413 257.87824301232513 835.0860803629763 257.87824301232513L835.0860803629763 257.87824301232513Q824.5978188317914 257.87824301232513 819.2133342014264 263.26272764269015Q813.8288495710613 268.6472122730552 812.5018675768481 275.40971666664166Q811.1493666981308 282.1977399447322 811.1493666981308 290.36378298604404L811.1493666981308 290.36378298604404L811.1493666981308 316.4696018337381Q811.1493666981308 317.1841305998529 812.0425276557743 317.1841305998529L812.0425276557743 317.1841305998529L829.5484824255867 317.1841305998529Q832.0493331069885 317.1841305998529 832.8148996421115 317.6689894054308Q833.5804661772345 318.1793670955128 834.2949949433493 320.9098877374515Q835.0095237094641 323.6404083793901 835.0095237094641 325.9371079847591Q835.0095237094641 328.208288705624 834.5501837883903 328.56555308868144Q834.1163627518207 328.92281747173877 832.6873052195909 328.92281747173877L832.6873052195909 328.92281747173877L812.3232353853194 328.92281747173877Q811.1493666981308 328.92281747173877 811.1493666981308 329.8414973138864L811.1493666981308 329.8414973138864L811.1493666981308 382.4869560458442Q811.1493666981308 395.32295495140625 833.4018339857058 395.32295495140625L833.4018339857058 395.32295495140625Q835.0095237094641 395.501587142935 835.0095237094641 396.49682363859483ZM907.7638634306523 369.6764760247861L907.7638634306523 369.6764760247861L907.5852312391238 350.74146372274413Q907.5852312391238 339.1558901578828 905.620277132308 334.48593429363257Q903.6298041409883 329.8414973138864 900.5930568850005 327.44272217050104Q897.5307907445084 325.0694659116198 892.3759760746804 325.0694659116198Q887.2211614048521 325.0694659116198 870.5318109391709 333.1589522994194L870.5318109391709 333.1589522994194Q868.2861491028101 334.48593429363257 868.2095924492978 335.65980298082115L868.2095924492978 335.65980298082115L868.2095924492978 383.9415324625778Q868.2095924492978 393.00073646153317 877.8812496763516 394.32771845574644L877.8812496763516 394.32771845574644Q882.1173845040322 394.9656905683489 882.1173845040322 396.34371033157026Q882.1173845040322 397.7472489792958 881.2242235463888 397.9258811708245L881.2242235463888 397.9258811708245L841.2106126439603 397.9258811708245Q840.2919328018128 397.7472489792958 840.2919328018128 396.6754558301236L840.2919328018128 396.6754558301236Q840.2919328018128 394.9656905683489 844.5280676294933 394.32771845574644L844.5280676294933 394.32771845574644Q854.199724856547 393.00073646153317 854.199724856547 383.9415324625778L854.199724856547 383.9415324625778L854.199724856547 332.44442353330453Q854.199724856547 328.6676286266978 850.091184451387 327.23857109446817L850.091184451387 327.23857109446817Q848.2793436515959 326.6005989818657 846.2123140067639 326.19229682980017Q844.1708032464359 325.78399467773454 842.9458967902391 325.4267302946771Q841.7465092185464 325.0694659116198 841.4147637199932 324.7632392975705Q841.1085371059438 324.4570126835214 841.1085371059438 323.41073841885327Q841.1085371059438 322.38998303868925 842.4610379846612 321.6754542725745L842.4610379846612 321.6754542725745L865.3259585003347 310.9064850118444Q866.3977516495067 310.3705884372583 866.6784593790518 310.3705884372583L866.6784593790518 310.3705884372583Q868.2095924492978 310.3705884372583 868.2095924492978 312.51417473560264L868.2095924492978 312.51417473560264L868.2095924492978 326.5240423283534Q868.4647812943389 327.41720328599695 868.9241212154126 327.41720328599695L868.9241212154126 327.41720328599695Q869.4600177899987 327.41720328599695 872.7774727755317 325.78399467773454L872.7774727755317 325.78399467773454Q880.4841758957698 321.93064311761543 888.2929545540243 318.3579992870415Q896.1017332122789 314.75983657196343 901.2055101130987 314.75983657196343L901.2055101130987 314.75983657196343Q921.9523632149319 314.75983657196343 921.9523632149319 352.527785638031L921.9523632149319 352.527785638031L921.1357589108007 378.73568002374145L921.1357589108007 383.9415324625778Q921.1357589108007 390.93370681670115 928.127933264924 393.07729311504556L928.127933264924 393.07729311504556Q931.0881238673995 394.0725296107054 933.8186445093382 394.480831762771Q936.5746840357809 394.86361503033254 937.4168072244163 395.24639829789396Q938.2589304130516 395.6036626809514 938.2589304130516 396.6754558301236Q938.2589304130516 397.7472489792958 937.365769455408 397.9258811708245L937.365769455408 397.9258811708245L894.1367791054632 397.9258811708245Q893.2436181478197 397.7472489792958 893.2436181478197 396.6754558301236L893.2436181478197 396.6754558301236Q893.2436181478197 394.9656905683489 897.4542340909961 394.32771845574644L897.4542340909961 394.32771845574644Q907.0493346645376 393.00073646153317 907.0493346645376 383.20148481195895L907.0493346645376 383.20148481195895Q907.7638634306523 378.73568002374145 907.7638634306523 369.6764760247861Z " fill="#E2V144" transform="matrix(0.9325783354797258,0,0,0.9325783354797257,0,-1.1536831411813608)"/></g></svg>
