<!-- design-c-r-port.svg -->
<svg xmlns="http://www.w3.org/2000/svg" viewBox="0 0 64 64" width="64" height="64">
  <rect width="64" height="64" rx="10" fill="#2a2421"/>
  <!-- rounded square inset -->
  <rect x="8" y="8" width="48" height="48" rx="8" fill="#413b35" stroke="#5a4f45" stroke-width="1.4"/>
  <!-- R -->
  <path d="M20 20 v24 h6 c4.5 0 8-3.6 8-8 0-2.8-1.5-4.6-3.8-5.4 2.2-0.8 4-2.8 4-6 0-4.6-3.6-6.6-8-6.6H20z M24 24h6c2.6 0 4 1.2 4 3.6 0 2.4-1.6 3.6-4 3.6h-6v-7.2z" fill="#e5dfd6"/>
  <!-- tiny port indicator -->
  <rect x="44" y="42" width="6" height="4" rx="1" fill="#be9b7b"/>
</svg>
