<?xml version='1.0' encoding='utf-8'?>
<svg xmlns="http://www.w3.org/2000/svg" viewBox="0 0 64 64"> <defs> <filter id="b" x="-.06614" y="-.10244" width="1.1323" height="1.2049"> <feGaussianBlur stdDeviation="1.53804"/> </filter> <radialGradient id="a" cx="33.645" cy="-1.3498" r="31.636" gradientTransform="matrix(-.00948 -1.4199 1.191 -.00796 33.563 77.945)" gradientUnits="userSpaceOnUse"> <stop stop-color="#0169c9" offset="0"/> <stop offset="1"/> </radialGradient> </defs> <path transform="matrix(1.0115 0 0 1 -.00418 0)" d="m63.636 31.818a31.636 32 0 1 1-63.273 0 31.636 32 0 1 1 63.273 0z" fill="url(#a)" opacity=".71707"/> <path d="m16.39913,12.62031c-1.35642-.0079-2.8687.57115-4.54406,2.10891 0,0 1.42308,1.29333 1.72529,2.13569 .28205.7862-1.14677,1.41832 0,2.48382s.57057,1.41946 2.67298,4.79358c1.10883,1.7847-.28093,3.70873 1.14817,5.85808 1.31585,4.33671 4.74636,6.90193 7.49041,8.3285 .03877.05589.08689.12033.15188.20085 .2951.36558.45347.54628.5346.63602l.04253.07365c.53787.89558 1.65816,2.93227 2.21128,3.94332l-.10935-.04016-.1944,4.26468 .12757.12051c-.51906-.05066-1.62801-.13197-2.18698.02679-.62187.17662-1.34256.97746-1.34256.97746s.88089-.58297 1.45191-.61593c.54034-.03121.99503-.06943 1.36079-.10712 .38873-.04007.67349-.08292.86872-.12051l-.09113.05354c-.18515.0091-.47346.03477-.77759.06696l-.89302.10042c.14665.04859-.65015.72278-.72292.74314 .54098-.22239 1.16679-.67723 1.61594-.64271l.68647-.20754c.61821-.08011 1.11443.0053 1.53089.20754-.13594-.25234-.44915-.43828-.89302-.57577l-.23085.12721h-.03039l1.63416-3.709-.27945-.10042 .27945-.07365c0,0-1.14492-3.55993.18832-4.25798 1.2669-.66332 2.90064.90223 3.82114,1.94823 .66299.75339.94315,2.74145.95377,2.81857l-1.52481,3.22027 .95377.18076 1.57949-3.37425h.52245c0,0-.21781-2.35678.5832-3.36756-.0246.07889.01.15041.18225.16738 .5737.05647 1.59107.34188 1.71921-.18076 .13348-.54449-1.75985-.36977-1.52481-.88373 .30817-.67389.76123.35131 2.29026.5289s1.53089-.17407 1.53089-.17407-3.60441-1.47064-3.0557-2.66459c.92707-2.01719 7.33854.16738 7.33854.16738l4.84781.54229 3.86367,1.07119 4.39219.17407c0,0 3.25712-.35801 1.53696-.5356-1.39545-.14405-2.15386-.62847-2.39353-.81009 3.74248.5269 3.91834-.79 3.91834-.79l-5.92308-.88373c0,0-3.97945-1.69978-4.35574-1.87458 .08303.03136.41116.16488 1.10564.45526 3.82257,1.59826 5.54643,1.23856 5.54643,1.23856s5.73011.88961-.57712-1.77416-5.54454-1.41697-8.98485-3.90316-1.58557-1.24393-3.82113-2.66461c-1.96359-.85782-4.68916-2.84281-8.60213-2.84535-1.58277-.53207-3.29794-2.05391-4.73238-2.87212-1.703-.97139-3.52602-2.15243-5.01183-4.05044-.83692-.80172-2.10629-1.10315-3.06178-1.78085-.89592-.63546-1.62757-1.44886-2.48465-2.12899-1.18063-.98153-2.52079-1.7451-4.05807-1.75407zm-4.34966,2.6445c0,0-1.7206.17373-2.86738.5289s-3.63282,3.72908-3.63282,3.72908 .9589.0039 2.67905-.5289 6.04764-.70966 6.04764-.70966l-.16924-1.95492zm30.19857,19.89067 5.73475.35483c0,0 .64908.25873 1.65846.62263zm-10.31526,12.13123c-.64989.02105-1.57341.62263-1.57341.62263s1.01267-.34649 1.57341-.24102c.52866.09944.97342.16942 1.33649.22093l-.88087-.1205c.12812.08222-.82921.54012-.90517.54229 .5845-.08472 1.31321-.36898 1.73744-.22763l.72292-.04016c.6195.0713 1.07556.28041 1.42154.57576-.06101-.27642-.30818-.53707-.69862-.77661l-.2673.06696-.08505-.02679c0,0-1.60252-.62108-2.38138-.59585zm1.34864.60255c.37553.05311.65878.08254.85657.09373l-.09112.02679c-.17973-.03558-.46377-.07855-.76544-.12051zm-7.27779.02009c-.1539.02216-.10614.02208.03037.0067-.009-.0017-.0158-.0087-.03037-.0067z" fill="#036" filter="url(#b)"/> <path d="m16.39913,12.62031c-1.35642-.0079-2.8687.57115-4.54406,2.10891 0,0 1.42308,1.29333 1.72529,2.13569 .28205.7862-1.14677,1.41832 0,2.48382s.57057,1.41946 2.67298,4.79358c1.10883,1.7847-.28093,3.70873 1.14817,5.85808 1.31585,4.33671 4.74636,6.90193 7.49041,8.3285 .03877.05589.08689.12033.15188.20085 .2951.36558.45347.54628.5346.63602l.04253.07365c.53787.89558 1.65816,2.93227 2.21128,3.94332l-.10935-.04016-.1944,4.26468 .12757.12051c-.51906-.05066-1.62801-.13197-2.18698.02679-.62187.17662-1.34256.97746-1.34256.97746s.88089-.58297 1.45191-.61593c.54034-.03121.99503-.06943 1.36079-.10712 .38873-.04007.67349-.08292.86872-.12051l-.09113.05354c-.18515.0091-.47346.03477-.77759.06696l-.89302.10042c.14665.04859-.65015.72278-.72292.74314 .54098-.22239 1.16679-.67723 1.61594-.64271l.68647-.20754c.61821-.08011 1.11443.0053 1.53089.20754-.13594-.25234-.44915-.43828-.89302-.57577l-.23085.12721h-.03039l1.63416-3.709-.27945-.10042 .27945-.07365c0,0-1.14492-3.55993.18832-4.25798 1.2669-.66332 2.90064.90223 3.82114,1.94823 .66299.75339.94315,2.74145.95377,2.81857l-1.52481,3.22027 .95377.18076 1.57949-3.37425h.52245c0,0-.21781-2.35678.5832-3.36756-.0246.07889.01.15041.18225.16738 .5737.05647 1.59107.34188 1.71921-.18076 .13348-.54449-1.75985-.36977-1.52481-.88373 .30817-.67389.76123.35131 2.29026.5289s1.53089-.17407 1.53089-.17407-3.60441-1.47064-3.0557-2.66459c.92707-2.01719 7.33854.16738 7.33854.16738l4.84781.54229 3.86367,1.07119 4.39219.17407c0,0 3.25712-.35801 1.53696-.5356-1.39545-.14405-2.15386-.62847-2.39353-.81009 3.74248.5269 3.91834-.79 3.91834-.79l-5.92308-.88373c0,0-3.97945-1.69978-4.35574-1.87458 .08303.03136.41116.16488 1.10564.45526 3.82257,1.59826 5.54643,1.23856 5.54643,1.23856s5.73011.88961-.57712-1.77416-5.54454-1.41697-8.98485-3.90316-1.58557-1.24393-3.82113-2.66461c-1.96359-.85782-4.68916-2.84281-8.60213-2.84535-1.58277-.53207-3.29794-2.05391-4.73238-2.87212-1.703-.97139-3.52602-2.15243-5.01183-4.05044-.83692-.80172-2.10629-1.10315-3.06178-1.78085-.89592-.63546-1.62757-1.44886-2.48465-2.12899-1.18063-.98153-2.52079-1.7451-4.05807-1.75407zm-4.34966,2.6445c0,0-1.7206.17373-2.86738.5289s-3.63282,3.72908-3.63282,3.72908 .9589.0039 2.67905-.5289 6.04764-.70966 6.04764-.70966l-.16924-1.95492zm30.19857,19.89067 5.73475.35483c0,0 .64908.25873 1.65846.62263zm-10.31526,12.13123c-.64989.02105-1.57341.62263-1.57341.62263s1.01267-.34649 1.57341-.24102c.52866.09944.97342.16942 1.33649.22093l-.88087-.1205c.12812.08222-.82921.54012-.90517.54229 .5845-.08472 1.31321-.36898 1.73744-.22763l.72292-.04016c.6195.0713 1.07556.28041 1.42154.57576-.06101-.27642-.30818-.53707-.69862-.77661l-.2673.06696-.08505-.02679c0,0-1.60252-.62108-2.38138-.59585zm1.34864.60255c.37553.05311.65878.08254.85657.09373l-.09112.02679c-.17973-.03558-.46377-.07855-.76544-.12051zm-7.27779.02009c-.1539.02216-.10614.02208.03037.0067-.009-.0017-.0158-.0087-.03037-.0067z" stroke="#000" stroke-width=".14273"/> </svg>