<?xml version='1.0' encoding='utf-8'?>
<svg xmlns:xlink="http://www.w3.org/1999/xlink" xmlns="http://www.w3.org/2000/svg" enable-background="new 0 0 50.65 70.05" version="1.1" viewBox="0 0 50.65 70.05"> <symbol viewBox="-24.856 -23.163 49.757 46.484"> <g clip-rule="evenodd" fill-rule="evenodd"> <radialGradient id="z" cx="712.82" cy="-309.56" r="18.714" gradientTransform="matrix(.9788 -.1413 -.1598 -1.0278 -757.53 -215.36)" gradientUnits="userSpaceOnUse"> <stop stop-color="#FDF8F8" stop-opacity=".7882" offset=".4863"/> <stop stop-color="#FDF8F8" stop-opacity=".5176" offset=".7922"/> </radialGradient> <path d="m-23.215 3.272c-0.875-4.685-0.232-9.25 1.927-13.7 2.076-4.333 5.262-7.904 9.557-10.716-4.513 1.992-7.966 5.211-10.359 9.661-2.442 4.568-3.268 9.486-2.476 14.755 0.977 6.323 3.944 11.417 8.9 15.282 4.879 3.829 10.307 5.352 16.282 4.566-4.746-0.422-9.232-2.12-13.458-5.094-5.773-3.981-9.231-8.899-10.373-14.754z" fill="url(#z)"/> <radialGradient id="h" cx="15594" cy="-16009" r="19.603" gradientTransform="matrix(-.9793 .1383 .1596 1.0282 17835 14302)" gradientUnits="userSpaceOnUse"> <stop stop-color="#FDF8F8" stop-opacity=".7882" offset=".4863"/> <stop stop-color="#FDF8F8" stop-opacity=".5176" offset=".7922"/> </radialGradient> <path d="m23.25-2.875c0.908 4.683 0.282 9.25-1.877 13.7-2.077 4.333-5.262 7.904-9.558 10.714 4.497-2.106 7.941-5.386 10.334-9.835 2.442-4.566 3.259-9.426 2.451-14.579-0.944-6.325-3.894-11.417-8.851-15.282-4.973-3.981-10.459-5.504-16.457-4.566l-4.813-0.439c5.297 0.808 10.646 2.771 16.047 5.884 7.49 4.332 11.731 9.133 12.724 14.403z" fill="url(#h)"/> <radialGradient id="g" cx="712.95" cy="-308.05" r="14.819" gradientTransform="matrix(.979 -.1405 -.1598 -1.0288 -759.47 -215.59)" gradientUnits="userSpaceOnUse"> <stop stop-color="#FDF8F8" stop-opacity=".7882" offset=".4863"/> <stop stop-color="#FDF8F8" stop-opacity=".5176" offset=".7922"/> </radialGradient> <path d="m-0.665 18.904 1.025-0.175c-5.3-0.235-9.936-1.873-13.908-4.918-4.004-3.044-6.444-6.909-7.319-11.594-0.74-3.981-0.213-7.844 1.581-11.592 1.744-3.63 4.422-6.674 8.035-9.134-3.797 1.64-6.701 4.392-8.711 8.256-2.044 3.865-2.729 8.021-2.055 12.471 0.842 5.388 3.34 9.661 7.496 12.824 4.139 3.277 8.757 4.566 13.856 3.862z" fill="url(#g)"/> <radialGradient id="f" cx="15596" cy="-16004" r="14.82" gradientTransform="matrix(-.979 .1405 .1598 1.0288 17839 14272)" gradientUnits="userSpaceOnUse"> <stop stop-color="#FDF8F8" stop-opacity=".7882" offset=".4863"/> <stop stop-color="#FDF8F8" stop-opacity=".5176" offset=".7922"/> </radialGradient> <path d="m21.4-2.523c0.723 3.863 0.187 7.669-1.606 11.417-1.778 3.63-4.473 6.675-8.085 9.133 3.831-1.638 6.751-4.392 8.762-8.254 2.094-3.748 2.787-7.846 2.08-12.295-0.843-5.388-3.35-9.721-7.521-12.999-4.207-3.279-8.834-4.509-13.883-3.689-0.434 0-0.758 0.059-0.975 0.175 5.25 0.117 9.861 1.698 13.833 4.743 4.022 3.161 6.487 7.084 7.395 11.769z" fill="url(#f)"/> </g> </symbol> <symbol id="r" viewBox="-23.05 -30.9 46.15 61.85"> <radialGradient id="e" cx=".0254" cy=".0254" r="23.083" gradientTransform="matrix(1 0 0 -1.3409 0 .0581)" gradientUnits="userSpaceOnUse"> <stop stop-opacity=".4078" offset=".6078"/> <stop stop-opacity="0" offset="1"/> </radialGradient> <path d="m16.35 21.9c4.5-6.067 6.75-13.367 6.75-21.9s-2.25-15.817-6.75-21.85-9.933-9.05-16.3-9.05-11.816 3.017-16.35 9.05c-4.5 6.033-6.75 13.317-6.75 21.85s2.25 15.833 6.75 21.9c4.533 6.033 9.983 9.05 16.35 9.05s11.8-3.017 16.3-9.05z" clip-rule="evenodd" fill="url(#e)" fill-rule="evenodd"/> </symbol> <symbol id="s" viewBox="-7.543 -10.964 15.118 21.859"> <g clip-rule="evenodd" fill-rule="evenodd"> <radialGradient id="d" cx="-80.454" cy="-94.95" r="18.214" gradientTransform="matrix(1 -.0099 -.0108 -1.085 79.329 -117.37)" gradientUnits="userSpaceOnUse"> <stop stop-color="#522818" offset="0"/> <stop stop-color="#160706" offset="1"/> </radialGradient> <path d="m6.55 8.9v-0.2l-0.7-0.15 0.25-1.15c0.033-1.2-0.35-2.783-1.15-4.75-1.267-3.233-1.917-4.9-1.95-5-0.5-1.033-1.317-1.983-2.45-2.85l-5.1-3.75c-0.367 0.7-0.717 1.617-1.05 2.75-0.667 2.267-0.967 4.45-0.9 6.55 0.033 1.066-0.083 1.883-0.35 2.45-0.2-0.733-0.35-1.283-0.45-1.65v0.15c0.1 0.467 0.233 0.934 0.4 1.4l1.8 4.35c0.033 0.067 0.067 0.133 0.1 0.2 0.067 0.133 0.15 0.267 0.25 0.4 1 1.9 1.867 2.9 2.6 3 1.867 0.2 3.217 0.267 4.05 0.2 0.367-0.033 0.717-0.067 1.05-0.1l0.3-0.05c0.2-0.034 0.4-0.083 0.6-0.15l1.3-0.5 0.4-0.25c0.367-0.233 0.7-0.517 1-0.85v-0.05z" fill="url(#d)"/> <path d="m-4.55-10.6c-0.267-0.1-0.534-0.183-0.8-0.25-0.1 0.167-0.217 0.483-0.35 0.95-0.033 0.167-0.066 0.316-0.1 0.45-0.2 0.833-0.35 1.4-0.45 1.7-0.567 1.967-0.883 3.117-0.95 3.45-0.4 2.033-0.45 3.783-0.15 5.25 0 0.066 0.017 0.133 0.05 0.2 0.1 0.367 0.25 0.917 0.45 1.65 0.267-0.566 0.383-1.383 0.35-2.45-0.067-2.1 0.233-4.283 0.9-6.55 0.333-1.133 0.684-2.05 1.05-2.75l5.1 3.75c1.133 0.867 1.95 1.817 2.45 2.85 0.033 0.1 0.683 1.767 1.95 5 0.8 1.967 1.183 3.55 1.15 4.75l-0.25 1.15 0.7 0.15 0.1 0.05 0.3-0.4 0.45-0.9-1.3-4.85c-0.8-2.767-1.867-5.1-3.2-7-0.6-0.833-1.567-1.9-2.9-3.2-0.667-0.667-1.533-1.333-2.6-2-0.167-0.1-0.333-0.2-0.5-0.3l-0.1-0.05c-0.6-0.267-1.05-0.483-1.35-0.65z" fill="#504A46"/> <path d="m-2.15 10.65c1.833 0.233 3.3 0.3 4.4 0.2 0.233-0.033 0.467-0.067 0.7-0.1-0.333 0.033-0.684 0.067-1.05 0.1-0.833 0.067-2.183 0-4.05-0.2zm8.7-1.75c0.133-0.167 0.267-0.35 0.4-0.55 0.5-0.7 0.7-1.383 0.6-2.05-0.066-0.933-0.433-2.483-1.1-4.65-0.933-2.933-2.05-5.233-3.35-6.9-1.267-1.6-2.967-2.983-5.1-4.15-0.433-0.167-0.8-0.333-1.1-0.5 0.167 0.1 0.333 0.2 0.5 0.3 1.067 0.667 1.934 1.333 2.6 2 1.333 1.3 2.3 2.367 2.9 3.2 1.333 1.9 2.4 4.233 3.2 7l1.3 4.85-0.45 0.9-0.3 0.4-0.1-0.05v0.2zm-11.9-19.75c0.267 0.067 0.533 0.15 0.8 0.25-0.3-0.133-0.483-0.233-0.55-0.3-0.067-0.1-0.15-0.083-0.25 0.05z" fill="#403C38"/> </g> </symbol> <symbol id="t" viewBox="-10.045 -14.55 20.056 29.066"> <g clip-rule="evenodd" fill-rule="evenodd"> <path d="m-7.5-14.55c-0.2 1-0.3 2.3-0.3 3.9 0.833 8.567 1.95 14.65 3.35 18.25 1.267 3.066 1.967 4.733 2.1 5 0.479 0.639 0.946 1.156 1.4 1.55 0.554 0.296 1.021 0.413 1.4 0.35 0.933-0.1 2.066-0.8 3.4-2.1 1.2-1.167 2.117-2.367 2.75-3.6 0.333-0.667 1.033-1.783 2.1-3.35 0.8-1.233 1.233-2.067 1.3-2.5 0.067-0.434-0.183-0.583-0.75-0.45-0.767 0.233-1.333 0.383-1.7 0.45-1.4 0.2-3.6-0.817-6.6-3.05-1.633-1.2-3.534-3.967-5.7-8.3l-2.75-6.15zm7.75 21.15 0.05-0.25c0.067-0.167 0.25-0.283 0.55-0.35 0.467-0.1 0.9 0.583 1.3 2.05l-0.2 1.45-0.45-2.1c-0.267-0.8-0.683-1.067-1.25-0.8zm-0.5 4.4c-0.3-0.433-0.55-0.967-0.75-1.6-0.233-0.8-0.15-1.35 0.25-1.65 0.133-0.1 0.5-0.2 1.1-0.3 0.333-0.067 0.617 0.5 0.85 1.7v0.05l0.15 0.6v0.2l0.05 0.2v0.2l0.05 0.15v0.65l-0.05 0.2v0.1l-0.05 0.2-0.1 0.2c0 0.067-0.05 0.1-0.15 0.1l-0.05 0.05-0.2-0.05h-0.05l-0.2-0.1-0.1-0.1-0.25-0.2-0.1-0.1-0.2-0.25-0.15-0.15v-0.05l-0.05-0.05zm1.15-4.25c0.533 0.3 0.817 1.3 0.85 3-0.3-1.533-0.667-2.35-1.1-2.45l-0.65-0.1 0.15-0.4c0.133-0.233 0.383-0.25 0.75-0.05zm1.4-2.05c1.233 0.566 2.25 0.783 3.05 0.65 0.9-0.133 1.367-0.017 1.4 0.35 0.033 0.4-0.317 0.783-1.05 1.15-0.367 0.233-0.917 0.183-1.65-0.15-0.733-0.3-1.417-0.8-2.05-1.5l-1.3-1.4 1.6 0.9zm-3.5 5.3c0 0.1 0.034 0.233 0.1 0.4 0.1 0.333 0.267 0.65 0.5 0.95 0.5 0.733 1 1.167 1.5 1.3-0.533 0.067-1-0.15-1.4-0.65-0.367-0.433-0.6-0.9-0.7-1.4-0.033-0.233-0.033-0.433 0-0.6z" fill="#403C38"/> <path d="m1.2 9.15c-0.5-0.2-0.784-0.233-0.85-0.1-0.367 0.2-0.6 0.383-0.7 0.55-0.2 0.3-0.167 0.767 0.1 1.4l0.05 0.05v0.05l0.15 0.15 0.2 0.25 0.1 0.1 0.25 0.2 0.1 0.1 0.2 0.1h0.05l0.2 0.05 0.05-0.05c0.1 0 0.15-0.033 0.15-0.1l0.1-0.2 0.05-0.2v-0.1l0.05-0.2v-0.65l-0.05-0.15v-0.2l-0.05-0.2v-0.2l-0.15-0.6v-0.05z" fill="#151015"/> <path d="m-0.25 11c-0.267-0.633-0.3-1.1-0.1-1.4 0.1-0.167 0.333-0.35 0.7-0.55 0.066-0.133 0.35-0.1 0.85 0.1-0.233-1.2-0.517-1.767-0.85-1.7-0.6 0.1-0.967 0.2-1.1 0.3-0.4 0.3-0.483 0.85-0.25 1.65 0.2 0.633 0.45 1.167 0.75 1.6zm0.5-4.4c0.567-0.267 0.983 0 1.25 0.8l0.45 2.1 0.2-1.45c-0.4-1.467-0.833-2.15-1.3-2.05-0.3 0.067-0.483 0.183-0.55 0.35l-0.05 0.25z" fill="#2F2D29"/> <path d="m-2.35 12.6 0.1 0.25c-1.033-1.267-1.983-3.05-2.85-5.35l-0.3-0.95c-0.567-1.9-1.05-4.083-1.45-6.55-0.7-3.867-1.05-6.733-1.05-8.6v-3.5l0.1 1.45c0-1.6 0.1-2.9 0.3-3.9-0.467 1.433-0.783 3.033-0.95 4.8-0.066 0.633-0.267 1.983-0.6 4.05-0.267 1.633-0.383 2.833-0.35 3.6 0 0.6-0.133 1.383-0.4 2.35-0.233 0.833-0.3 1.6-0.2 2.3 0.467 2.967 1.767 5.583 3.9 7.85 1.267 1.367 2.567 2.434 3.9 3.2l0.8 0.35c0.1 0.066 0.217 0.117 0.35 0.15 0.033 0.033 0.083 0.066 0.15 0.1-0.019-0.017-0.036-0.033-0.05-0.05-0.454-0.394-0.921-0.911-1.4-1.55zm3.25-5.85c-0.367-0.2-0.617-0.183-0.75 0.05l-0.15 0.4 0.65 0.1c0.434 0.1 0.8 0.917 1.1 2.45-0.033-1.7-0.317-2.7-0.85-3zm1.4-2.05-1.6-0.9 1.3 1.4c0.633 0.7 1.317 1.2 2.05 1.5 0.733 0.333 1.283 0.383 1.65 0.15 0.733-0.367 1.083-0.75 1.05-1.15-0.033-0.367-0.5-0.483-1.4-0.35-0.8 0.133-1.817-0.083-3.05-0.65zm-3.5 5.3c-0.033 0.167-0.033 0.367 0 0.6 0.1 0.5 0.333 0.967 0.7 1.4 0.4 0.5 0.867 0.717 1.4 0.65-0.5-0.133-1-0.566-1.5-1.3-0.233-0.3-0.4-0.617-0.5-0.95-0.067-0.167-0.1-0.3-0.1-0.4z" fill="#5E5852"/> <path d="m-7.8-10.65-0.1-1.45v3.5c0 1.867 0.35 4.733 1.05 8.6 0.4 2.467 0.883 4.65 1.45 6.55l0.3 0.95c0.867 2.3 1.817 4.083 2.85 5.35l-0.1-0.25c-0.133-0.267-0.833-1.934-2.1-5-1.4-3.6-2.517-9.683-3.35-18.25z" fill="#817870"/> </g> </symbol> <symbol id="u" viewBox="-8.15 -5.672 16.304 11.317"> <g clip-rule="evenodd" fill-rule="evenodd"> <path d="m-7.65 1.85-0.5-0.1 0.45 0.45c0.267 0.267 0.833 0.7 1.7 1.3l0.35 0.4c0.433 0.333 1.133 0.7 2.1 1.1 1.633 0.667 2.933 0.817 3.9 0.45 0.6-0.167 1.25-0.55 1.95-1.15l0.85-0.8c0.3-0.3 0.6-0.633 0.9-1-1.167 1-2.367 1.6-3.6 1.8-2.267 0.333-4.034 0.167-5.3-0.5h1.85l-2.1-0.75 1.65-0.1c-1.7-0.267-2.933-0.6-3.7-1l-0.5-0.1z" fill="#554254"/> <path d="m-7.15 1.8 0.05 0.15-0.55-0.1 0.5 0.1c0.767 0.4 2 0.733 3.7 1l-1.65 0.1 2.1 0.75h-1.85c1.267 0.667 3.033 0.833 5.3 0.5 1.233-0.2 2.433-0.8 3.6-1.8-0.3 0.367-0.6 0.7-0.9 1 0.867-0.833 1.767-1.967 2.7-3.4 1.933-2.933 2.65-4.533 2.15-4.8 0.133 0.133 0.05 0.583-0.25 1.35h-0.05c-0.4 0.767-0.9 1.45-1.5 2.05-0.633 0.7-1.167 1.05-1.6 1.05 0.167-0.533 0.167-1 0-1.4-0.867 1.133-2.25 2.667-4.15 4.6 0.133-0.267 0.35-0.683 0.65-1.25 0.233-0.5 0.333-0.95 0.3-1.35-1.333 1.4-2.633 2.25-3.9 2.55 0.6-0.8 0.933-1.45 1-1.95-0.933 0.6-1.85 1-2.75 1.2-1.2 0.267-2.167 0.15-2.9-0.35zm0-0.95-0.5-0.3 0.2 0.15c0.1 0.067 0.2 0.117 0.3 0.15z" fill="#483648"/> <path d="m-7.65 0.55 0.5 1.25c0.733 0.5 1.7 0.617 2.9 0.35 0.9-0.2 1.817-0.6 2.75-1.2-0.067 0.5-0.4 1.15-1 1.95 1.267-0.3 2.567-1.15 3.9-2.55 0.033 0.4-0.067 0.85-0.3 1.35-0.3 0.567-0.517 0.983-0.65 1.25 1.9-1.934 3.283-3.467 4.15-4.6 0.167 0.4 0.167 0.867 0 1.4 0.433 0 0.967-0.35 1.6-1.05 0.6-0.6 1.1-1.284 1.5-2.05l-0.65 0.25c-0.367 0.267-0.633 0.467-0.8 0.6-0.333 0.233-0.65 0.333-0.95 0.3v-0.9c0-0.367-0.05-0.667-0.15-0.9-0.566 0.333-1.433 1.2-2.6 2.6 0.167-0.667 0.25-1.05 0.25-1.15 0-0.333-0.233-0.55-0.7-0.65-0.433-0.1-0.917-0.017-1.45 0.25-0.2 0.1-0.617 0.383-1.25 0.85-1.3 1.133-2.316 1.917-3.05 2.35-1.267 0.8-2.517 1.033-3.75 0.7l-0.05-0.25-0.2-0.15z" fill="#362835"/> <path d="m-7.15 0.85c-0.1-0.033-0.2-0.083-0.3-0.15l0.05 0.25c1.233 0.333 2.483 0.1 3.75-0.7 0.733-0.433 1.75-1.217 3.05-2.35 0.633-0.467 1.05-0.75 1.25-0.85 0.533-0.267 1.017-0.35 1.45-0.25 0.467 0.1 0.7 0.317 0.7 0.65 0 0.1-0.083 0.483-0.25 1.15 1.167-1.4 2.033-2.267 2.6-2.6 0.1 0.233 0.15 0.533 0.15 0.9v0.9c0.3 0.034 0.617-0.066 0.95-0.3 0.167-0.133 0.433-0.333 0.8-0.6l0.65-0.25h0.05c0.3-0.767 0.383-1.217 0.25-1.35h-0.1c-1.933-0.633-2.933-0.95-3-0.95-1.833-0.167-3.833 0.617-6 2.35-2.533 2.133-4.117 3.45-4.75 3.95-0.2 0.133-0.4 0.217-0.6 0.25-0.033 0.033-0.066 0.05-0.1 0.05h-0.25c-0.133 0-0.25-0.033-0.35-0.1z" fill="#251B23"/> </g> </symbol> <symbol id="v" viewBox="-10.175 -6.444 20.425 12.908"> <g clip-rule="evenodd" fill-rule="evenodd"> <path d="m2.55 6.3-1.15-0.5c-2.066-1.2-3.383-2.017-3.95-2.45-1.1-0.967-1.934-1.667-2.5-2.1-0.267-0.233-0.667-0.467-1.2-0.7-0.567-0.3-1-0.517-1.3-0.65l0.25 0.25c0.167 0.233 0.367 0.467 0.6 0.7 0 0.033 0.017 0.066 0.05 0.1 0.566 0.633 1.117 1.2 1.65 1.7l0.8 0.75c0.267 0.267 0.534 0.5 0.8 0.7 0.267 0.2 0.517 0.383 0.75 0.55l1.9 1.2c0.567 0.3 1.1 0.483 1.6 0.55h0.2c0.567 0.1 1.083 0.083 1.55-0.05l-0.05-0.05z" fill="#554254"/> <path d="m7.1 3.85c-0.1-0.167-0.1-0.383 0-0.65 0.167-0.367 0.25-0.667 0.25-0.9 0-0.5-0.133-0.983-0.4-1.45-0.3-0.467-0.7-0.817-1.2-1.05-0.133-0.067-1.283-0.367-3.45-0.9-1.467-0.367-2.533-0.9-3.2-1.6 1.867 0.5 3.217 0.95 4.05 1.35-1.3-1.567-3.717-2.75-7.25-3.55-0.6-0.133-1.533-0.133-2.8 0-1.5 0.167-2.55 0.467-3.15 0.9 0.133 0.467 0.483 1.117 1.05 1.95 0.533-0.1 1.25-0.034 2.15 0.2 0.934 0.267 1.533 0.583 1.8 0.95-0.434-0.633-0.633-1.3-0.6-2 0.833 0.6 2.316 1.683 4.45 3.25 1.534 0.9 2.95 1.367 4.25 1.4-0.767 0.067-1.367 0.15-1.8 0.25 0.767 0.633 2.017 0.95 3.75 0.95-1.733 0.333-3.033 0.483-3.9 0.45 1.233 1.067 2.9 1.467 5 1.2l1-0.75z" fill="#362835"/> <path d="m-10.05-4c-0.034-0.233-0.034-0.383 0-0.45-0.467 0.434 0.367 1.883 2.5 4.35 0.3 0.133 0.733 0.35 1.3 0.65 0.533 0.233 0.933 0.467 1.2 0.7 0.566 0.433 1.4 1.133 2.5 2.1 0.567 0.433 1.883 1.25 3.95 2.45l1.15 0.5c0.867-0.167 1.8-0.566 2.8-1.2 1.755-1.059 2.638-1.826 2.65-2.3-9e-3 0.208-0.31 0.558-0.9 1.05l-1 0.75c-2.1 0.267-3.767-0.133-5-1.2 0.867 0.033 2.167-0.117 3.9-0.45-1.733 0-2.983-0.317-3.75-0.95 0.433-0.1 1.033-0.183 1.8-0.25-1.3-0.033-2.716-0.5-4.25-1.4-2.133-1.567-3.617-2.65-4.45-3.25-0.033 0.7 0.167 1.367 0.6 2-0.267-0.367-0.867-0.684-1.8-0.95-0.9-0.233-1.617-0.3-2.15-0.2-0.567-0.833-0.917-1.483-1.05-1.95z" fill="#483648"/> <path d="m-10.05-4.45c-0.034 0.067-0.034 0.217 0 0.45 0.6-0.433 1.65-0.733 3.15-0.9 1.267-0.133 2.2-0.133 2.8 0 3.533 0.8 5.95 1.983 7.25 3.55-0.833-0.4-2.183-0.85-4.05-1.35 0.667 0.7 1.733 1.233 3.2 1.6 2.167 0.533 3.317 0.833 3.45 0.9 0.5 0.233 0.9 0.583 1.2 1.05 0.267 0.467 0.4 0.95 0.4 1.45 0 0.233-0.083 0.534-0.25 0.9-0.1 0.267-0.1 0.483 0 0.65 0.59-0.492 0.891-0.842 0.9-1.05l1.85-1.95 0.4-0.6-1.2 0.45 0.4-1.8c-0.133 0.2-0.333 0.367-0.6 0.5-0.467 0.267-0.967 0.25-1.5-0.05l-6.35-3.9c-2.867-1.667-5.4-2.233-7.6-1.7-0.033 0.033-1.15 0.617-3.35 1.75-0.033 0-0.067 0.017-0.1 0.05z" fill="#251B23"/> </g> </symbol> <symbol id="w" clip-rule="evenodd" fill-rule="evenodd" viewBox="-4.913 -9.128 9.115 14.068"> <path d="m1.35-8.85c-1.4-0.533-2.817-0.3-4.25 0.7-0.333 0.233-0.65 0.55-0.95 0.95-0.267 0.3-0.533 0.784-0.8 1.45-0.367 1.167-0.35 2.25 0.05 3.25 0.811 2.398 2.894 2.481 6.25 0.25l0.35 0.05c0.633-0.7 1.05-1.433 1.25-2.2 0.167-0.633 0.233-1.15 0.2-1.55-0.1-1.4-0.8-2.367-2.1-2.9z" fill="#090509"/> <radialGradient id="c" cx="-3392.6" cy="-9002.5" r="7.3025" gradientTransform="matrix(.6539 -.7566 .7138 .6898 8643 3644.1)" gradientUnits="userSpaceOnUse"> <stop stop-color="#FAEED0" offset="0"/> <stop stop-color="#6A310E" offset="1"/> </radialGradient> <path d="m0.45 4.45c0.833-0.467 1.667-1.233 2.5-2.3 0.867-1.167 1.284-2.1 1.25-2.8-0.033-0.867-0.233-1.683-0.6-2.45-0.466-0.9-1.066-1.434-1.8-1.6-1.166-0.267-2.25-0.25-3.25 0.05-1.433 0.4-2.283 1.3-2.55 2.7-0.367 1.967-0.2 3.7 0.5 5.2 0.833 1.733 2.15 2.133 3.95 1.2z" fill="url(#c)"/> <path d="m-3.05-0.3c-0.033 0.267 0.017 0.517 0.15 0.75s0.284 0.35 0.45 0.35c0.4 0.067 0.633-0.25 0.7-0.95 0-0.7-0.2-1.083-0.6-1.15-0.167-0.033-0.333 0.05-0.5 0.25-0.133 0.2-0.2 0.45-0.2 0.75z" fill="#090509"/> </symbol> <symbol id="x" clip-rule="evenodd" fill-rule="evenodd" viewBox="-6.3 -8.667 13.95 15.394"> <path d="m7.05-1.65c-0.233 0.667-0.6 1.233-1.1 1.7-0.5 0.5-1.05 0.833-1.65 1l-8.9-4.1c0.833-1.833 2.2-3.15 4.1-3.95 1.633-0.7 3.5-0.983 5.6-0.85-0.733-0.033-1.917 0.383-3.55 1.25 2.534 0 4.25 0.633 5.15 1.9l0.2 0.35-0.2-0.85c-0.133-0.433-0.417-0.883-0.85-1.35-0.5-0.5-0.867-0.883-1.1-1.15 0.633-0.133 1.6-0.183 2.9-0.15-1.733-0.933-3.95-1.067-6.65-0.4-0.6 0.167-1.35 0.433-2.25 0.8-1.3 0.534-2.333 1.25-3.1 2.15-0.433 0.5-0.8 1.183-1.1 2.05-0.4 1.133-0.683 1.867-0.85 2.2l0.05 0.15 0.2 0.3 3.15 5.5c0.167 0.833 0.883 1.383 2.15 1.65 1.167 0.267 2.317 0.233 3.45-0.1l0.6-0.3 2-1.75c1.1-1.4 1.667-2.933 1.7-4.6l0.05-1.45z" fill="#251B23"/> <path d="m7.05-1.65c0.333-1 0.284-1.9-0.15-2.7l-0.2-0.35c-0.9-1.267-2.617-1.9-5.15-1.9 1.633-0.867 2.817-1.283 3.55-1.25-2.1-0.133-3.967 0.15-5.6 0.85-1.9 0.8-3.267 2.117-4.1 3.95l8.9 4.1c0.6-0.167 1.15-0.5 1.65-1 0.5-0.467 0.867-1.033 1.1-1.7z" fill="#090509"/> <radialGradient id="b" cx="6894.1" cy="-19678" r="8.1634" gradientTransform="matrix(-.6646 -.7472 -.7871 .6293 -10905 17536)" gradientUnits="userSpaceOnUse"> <stop stop-color="#FAEED0" offset="0"/> <stop stop-color="#6A310E" offset="1"/> </radialGradient> <path d="m-0.7 4.7c2.067 1.1 3.634 0.717 4.7-1.15 0.9-1.567 1.183-3.4 0.85-5.5-0.267-1.5-1.233-2.5-2.9-3-1.167-0.367-2.466-0.434-3.9-0.2-0.9 0.167-1.633 0.717-2.2 1.65-0.466 0.8-0.749 1.667-0.85 2.6-0.067 0.767 0.4 1.783 1.4 3.05 0.967 1.2 1.934 2.05 2.9 2.55z" fill="url(#b)"/> <path d="m2.15 0.1c0 0.767 0.283 1.183 0.85 1.25 0.267 0.033 0.484-0.05 0.65-0.25 0.2-0.2 0.3-0.467 0.3-0.8 0.034-0.333-0.033-0.617-0.2-0.85-0.133-0.233-0.333-0.367-0.6-0.4-0.233-0.033-0.45 0.067-0.65 0.3-0.2 0.2-0.316 0.45-0.35 0.75z" fill="#090509"/> </symbol> <symbol id="y" viewBox="-22.3 -28.3 44.65 56.6"> <g clip-rule="evenodd" fill-rule="evenodd"> <path d="m5.35 25.1c-0.267-0.467-0.6-0.917-1-1.35-0.5-0.533-0.883-0.767-1.15-0.7-0.3 0.067-0.467 0.25-0.5 0.55 0.033 0.4 0.05 0.717 0.05 0.95-0.133-0.4-0.417-0.65-0.85-0.75-0.033 0.167 0 0.684 0.1 1.55-0.767-0.434-1.4-0.733-1.9-0.9-0.967-0.3-1.5-0.067-1.6 0.7-0.533-0.867-0.9-1.35-1.1-1.45-0.167-0.067-0.467-0.05-0.9 0.05-0.467 0.1-0.767 0.15-0.9 0.15-0.133-0.267-0.2-0.733-0.2-1.4-0.367 0.133-0.867 0.217-1.5 0.25-0.767 0.033-1.267-0.05-1.5-0.25-0.2-0.133-0.283-0.433-0.25-0.9 0-0.233 0.017-0.567 0.05-1-0.767 0.333-1.267 0.333-1.5 0-0.2-0.3-0.15-0.833 0.15-1.6h-2c-0.633-0.133-0.7-0.583-0.2-1.35-1.2-0.066-1.983-0.5-2.35-1.3l-1.2 0.5 0.6 0.7-0.25-0.05 3.15 3.1c2.467 2.167 4.6 3.45 6.4 3.85 2.9 0.667 4.817 1.383 5.75 2.15l-0.1-1.05 0.55 0.1c0.4 0.167 0.767 0.467 1.1 0.9 0.5 0.633 0.817 1.217 0.95 1.75 0.533-1.2 0.8-2.2 0.8-3v-1.15c0.2 0.233 0.333 0.75 0.4 1.55l0.15 1.65c0.333-0.833 0.583-1.583 0.75-2.25z" fill="#554254"/> <path d="m-6.85 5.9-0.15-0.6c0.2-1.066 0.7-1.8 1.5-2.2 0.733-0.434 1.467-0.417 2.2 0.05l-0.65-13.6c-0.5 1.3-0.783 2.317-0.85 3.05l-2.85 1.3c-0.434 1.633-1.2 3.533-2.3 5.7 0.333 1.367 0.35 2.467 0.05 3.3l-1.05-0.05c-0.2 0.767-0.617 1.5-1.25 2.2l-0.35-0.05-6.25-0.25c-0.4-1-0.417-2.083-0.05-3.25 0.067-1.233 0.267-2.233 0.6-3 0-1.7 0.05-2.767 0.15-3.2l-1.2 2.1v-2.15c-0.3 0.533-0.533 1.35-0.7 2.45-0.167 1.2-0.35 2.017-0.55 2.45-0.2 0-0.45-0.117-0.75-0.35l-0.2-0.4c0.333 0.9 0.9 1.817 1.7 2.75l0.15 0.8-0.85-0.05 1.05 0.7c0.267 0.967 0.567 1.867 0.9 2.7 0.267 0.6 0.55 1.95 0.85 4.05 0.267 2.033 0.55 3.333 0.85 3.9 0.6 1.1 1.45 2.2 2.55 3.3l-0.6-0.7 1.2-0.5c0.367 0.8 1.15 1.233 2.35 1.3-0.5 0.767-0.433 1.217 0.2 1.35h2c-0.3 0.767-0.35 1.3-0.15 1.6 0.233 0.333 0.733 0.333 1.5 0-0.034 0.433-0.05 0.767-0.05 1-0.033 0.467 0.05 0.767 0.25 0.9 0.233 0.2 0.733 0.283 1.5 0.25 0.633-0.033 1.133-0.117 1.5-0.25 0 0.667 0.067 1.133 0.2 1.4 0.133 0 0.433-0.05 0.9-0.15 0.433-0.1 0.733-0.117 0.9-0.05 0.2 0.1 0.567 0.583 1.1 1.45 0.1-0.767 0.633-1 1.6-0.7 0.5 0.167 1.133 0.466 1.9 0.9-0.1-0.867-0.133-1.383-0.1-1.55 0.434 0.1 0.717 0.35 0.85 0.75 0-0.233-0.017-0.55-0.05-0.95 0.033-0.3 0.2-0.483 0.5-0.55 0.267-0.066 0.65 0.167 1.15 0.7 0.4 0.433 0.733 0.883 1 1.35 0.1-0.467 0.167-0.883 0.2-1.25 0.067-0.467 0.467-0.8 1.2-1 1.2-0.3 2.233-0.717 3.1-1.25 1.833-1.167 3.15-2.35 3.95-3.55 0.133 0.767 0.2 1.317 0.2 1.65v0.45l0.5-1c0.333-0.767 0.5-1.35 0.5-1.75v-0.85c-1.133 0.867-2.167 1.55-3.1 2.05-0.433 0.533-0.9 0.983-1.4 1.35-2.433 1.7-4.517 2.7-6.25 3 0-0.5 0.017-0.784 0.05-0.85-0.7 0.533-1.833 0.983-3.4 1.35 0.067-0.2 0.067-0.534 0-1-1.2 0.833-2.367 1.133-3.5 0.9 0.067-0.267 0.067-0.7 0-1.3-0.9 0.4-1.5 0.567-1.8 0.5 0.033-0.267 0.05-0.716 0.05-1.35-0.833 0.6-1.417 0.966-1.75 1.1 0.067-0.667 0.184-1.683 0.35-3.05-0.333 0-0.817 0.133-1.45 0.4s-1.133 0.367-1.5 0.3c0.167-0.267 0.434-0.633 0.8-1.1 0.3-0.467 0.467-0.883 0.5-1.25-0.667 0.267-1.167 0.467-1.5 0.6-0.633 0.267-1.167 0.433-1.6 0.5 0.867-0.8 1.383-1.483 1.55-2.05-0.333-0.133-0.933-0.167-1.8-0.1-1.233 0.133-1.883 0.2-1.95 0.2l1.15-8.8c0.3-0.933 1.867-1.617 4.7-2.05zm22.4 10.1-0.55 0.5 1.1 1.05 0.1-1.2-0.65-0.35zm2.3-9.5c-0.067 0.1-0.117 0.183-0.15 0.25-0.1 0.167-0.233 0.4-0.4 0.7 0.1-0.167 0.184-0.3 0.25-0.4 0.1-0.167 0.2-0.35 0.3-0.55zm1.4-10.675v-0.225l-0.05-0.25c0.029 0.171 0.045 0.329 0.05 0.475zm-0.5-3.625c-0.1-0.4-0.233-0.767-0.4-1.1 0.233 0.5 0.4 1.066 0.5 1.7l0.25 1.4-0.05-0.5-0.3-1.5zm-27.85-14.6 2.2-1.55c-0.267 0.167-0.55 0.35-0.85 0.55-0.6 0.4-1.183 0.833-1.75 1.3 0.133-0.1 0.267-0.2 0.4-0.3zm-10.9 16.8c0.067-0.066 0.133-0.167 0.2-0.3-0.067 0.1-0.117 0.167-0.15 0.2l-0.05 0.05v0.05zm21.25 10.45-0.2-0.3-0.1 0.05 0.3 0.25zm17.4-0.9c0.367-0.633 0.633-1.367 0.8-2.2 0.2-1 0.117-1.7-0.25-2.1-0.1 0.533-0.3 1.017-0.6 1.45 0-2.133-0.05-3.633-0.15-4.5-0.2-1.633-0.65-3.017-1.35-4.15 0.066 1.433 0.083 2.517 0.05 3.25-0.3-1.233-0.95-2.483-1.95-3.75-0.9-1.2-1.9-2.184-3-2.95 0.367 1.233 0.566 1.95 0.6 2.15 0.2 0.767 0.25 1.517 0.15 2.25-0.567-0.833-1.383-1.583-2.45-2.25-0.033 0.4 0 0.95 0.1 1.65 0.1 0.8 0.15 1.35 0.15 1.65-0.2-0.467-0.633-1.083-1.3-1.85 0.066 1.2-0.1 2.283-0.5 3.25 1.7-0.133 3.233 0.083 4.6 0.65 1.733 0.7 2.633 1.817 2.7 3.35-0.933-0.333-1.633-0.533-2.1-0.6l1.7 1.7c0.533 0.633 0.816 1.35 0.85 2.15 0.033 0.3 0.017 0.75-0.05 1.35l1.25 0.45c0.467-0.567 0.717-0.883 0.75-0.95z" fill="#483648"/> <path d="m19.25-4.175c-5e-3 -0.146-0.021-0.305-0.05-0.475l-0.1-1.15-0.25-1.4c-0.1-0.633-0.267-1.2-0.5-1.7-0.6-1.467-1.317-2.783-2.15-3.95-1.133-1.533-2.233-2.4-3.3-2.6 0.9 2.5 1.417 4.083 1.55 4.75-1.367-2.066-2.067-3.15-2.1-3.25-0.967-1.167-2-1.833-3.1-2 0.967 1.267 1.467 2.3 1.5 3.1-0.533-0.9-1.217-1.45-2.05-1.65 0.133 0.367 0.2 1.25 0.2 2.65-0.633-1.2-1.167-2-1.6-2.4 0.3 0.933 0.434 2.067 0.4 3.4 0 1.267-0.15 2.4-0.45 3.4-0.667 1.4-1.15 2.417-1.45 3.05-0.4 0.8-1.033 1.633-1.9 2.5-1.2 1.167-1.917 1.9-2.15 2.2l-5.45-15.05-0.45-0.45-2.1-3.75c-0.033-0.133-0.067-0.267-0.1-0.4 0.033 0.2 0.067 0.383 0.1 0.55l0.05 2.05c0 0.367-0.017 0.733-0.05 1.1-0.133 1.767-0.233 3.017-0.3 3.75-0.034 0.833-0.217 2.05-0.55 3.65-0.2 0.933-0.383 1.65-0.55 2.15l2.85-1.3c0.066-0.733 0.35-1.75 0.85-3.05l0.65 13.6c0.5 0.3 0.9 0.85 1.2 1.65l0.1 0.4c0.067 0.367 0.1 0.867 0.1 1.5 0 0.733 0.017 1.233 0.05 1.5 0.033 0.5 0.15 1.133 0.35 1.9 0.3 1.066 0.467 1.683 0.5 1.85-0.6-0.434-1.083-0.667-1.45-0.7-0.1 0.667 0.133 1.433 0.7 2.3 0.8 1.167 1.233 1.85 1.3 2.05-0.367-0.233-0.833-0.633-1.4-1.2-0.6-0.6-1.066-1.017-1.4-1.25-0.033 1.3 0.033 2.883 0.2 4.75-1.034-2.167-1.784-4.15-2.25-5.95-0.267 0.833-0.567 1.4-0.9 1.7 0-1.733 0.034-3.033 0.1-3.9-0.267 0.433-0.8 0.983-1.6 1.65 0.067-0.267 0.367-0.833 0.9-1.7 0.367-0.667 0.517-1.25 0.45-1.75l-0.5-2.05c-2.833 0.434-4.4 1.117-4.7 2.05l-1.15 8.8c0.067 0 0.717-0.067 1.95-0.2 0.867-0.066 1.467-0.033 1.8 0.1-0.167 0.567-0.683 1.25-1.55 2.05 0.433-0.067 0.967-0.233 1.6-0.5 0.333-0.133 0.833-0.333 1.5-0.6-0.033 0.367-0.2 0.783-0.5 1.25-0.367 0.467-0.633 0.833-0.8 1.1 0.367 0.066 0.867-0.034 1.5-0.3s1.117-0.4 1.45-0.4c-0.167 1.367-0.283 2.383-0.35 3.05 0.333-0.133 0.917-0.5 1.75-1.1 0 0.633-0.017 1.083-0.05 1.35 0.3 0.067 0.9-0.1 1.8-0.5 0.067 0.6 0.067 1.034 0 1.3 1.133 0.233 2.3-0.067 3.5-0.9 0.067 0.466 0.067 0.8 0 1 1.567-0.367 2.7-0.817 3.4-1.35-0.033 0.066-0.05 0.35-0.05 0.85 1.733-0.3 3.817-1.3 6.25-3 0.5-0.367 0.967-0.817 1.4-1.35-2.167 1.267-4.267 2.083-6.3 2.45l1.15-1.15c0.467-0.5 0.75-0.967 0.85-1.4-0.533 0.467-1.467 0.95-2.8 1.45 0.1-0.3 0.367-0.667 0.8-1.1 0.4-0.434 0.65-0.817 0.75-1.15l3.45-5.65 0.2-0.15c-1.133 0.333-2.283 0.367-3.45 0.1-1.267-0.267-1.983-0.817-2.15-1.65l-3.15-5.5-0.3-0.25 0.1-0.05-0.05-0.15c0.167-0.333 0.45-1.066 0.85-2.2 0.3-0.867 0.667-1.55 1.1-2.05 0.767-0.9 1.8-1.617 3.1-2.15 0.9-0.367 1.65-0.633 2.25-0.8 2.7-0.667 4.917-0.534 6.65 0.4-1.3-0.033-2.267 0.017-2.9 0.15 0.233 0.267 0.6 0.65 1.1 1.15 0.434 0.467 0.717 0.917 0.85 1.35l0.2 0.85c0.433 0.8 0.483 1.7 0.15 2.7l-0.05 1.45c-0.033 1.667-0.6 3.2-1.7 4.6l-1.25 1.4-0.25 0.15c0.633-0.167 1.617-0.316 2.95-0.45l1.55-0.25 0.55-0.95c0.2-0.433 0.383-0.817 0.55-1.15l0.6-1.15c0.167-0.3 0.3-0.534 0.4-0.7 0.033-0.067 0.083-0.15 0.15-0.25l0.05-0.05c0.333-0.5 0.684-0.9 1.05-1.2 0.733-0.567 1.233-0.883 1.5-0.95l-1.5-0.05 0.95-0.95c0.7-0.8 1.233-1.633 1.6-2.5l0.05-0.15-0.95 0.25-0.05-0.5-0.15 0.15 0.1-0.7v-0.15c-0.033-0.833-0.183-1.55-0.45-2.15-0.367 0.467-0.6 0.85-0.7 1.15l-0.1-2.875zm-3.05 20.525v-0.05l0.85-2.15c0.133-0.3 0.267-0.566 0.4-0.8l-0.65 0.9c-0.667 1-1.083 1.583-1.25 1.75l0.65 0.35zm-23.1-40.3-2.2 1.55h0.1c0.7-0.033 1.15 0 1.35 0.1 0.3 0.133 0.583 0.533 0.85 1.2l0.25 0.85c-0.167-1.333-0.2-2.617-0.1-3.85l-0.25 0.15zm-12.9 18.05c-0.067 0.133-0.133 0.233-0.2 0.3-0.033 0-0.05 0.017-0.05 0.05l-0.3 1.1c-0.2 0.633-0.267 1.45-0.2 2.45l0.15 1.25-1.9-1.95 0.8 2.1 0.2 0.4c0.3 0.233 0.55 0.35 0.75 0.35 0.2-0.433 0.383-1.25 0.55-2.45 0.167-1.1 0.4-1.917 0.7-2.45v2.15l1.2-2.1c-0.1 0.434-0.15 1.5-0.15 3.2-0.333 0.767-0.533 1.767-0.6 3 0.267-0.667 0.533-1.15 0.8-1.45l0.05-0.1 1-1.65c0.3-0.4 0.467-0.767 0.5-1.1 0.1-0.733-0.05-2.367-0.45-4.9-0.367 0.8-0.667 1.35-0.9 1.65 0-0.034 0.05-0.9 0.15-2.6-0.4 0.3-0.816 0.783-1.25 1.45-0.066 0.1-0.133 0.2-0.2 0.3-0.033 0.066-0.05 0.117-0.05 0.15l-0.6 0.85zm38.45 9.85c-0.033 0.066-0.283 0.383-0.75 0.95l-1.25-0.45c0.067-0.6 0.083-1.05 0.05-1.35-0.034-0.8-0.317-1.517-0.85-2.15l-1.7-1.7c0.467 0.067 1.167 0.267 2.1 0.6-0.067-1.533-0.967-2.65-2.7-3.35-1.367-0.567-2.9-0.783-4.6-0.65 0.4-0.967 0.566-2.05 0.5-3.25 0.667 0.767 1.1 1.383 1.3 1.85 0-0.3-0.05-0.85-0.15-1.65-0.1-0.7-0.133-1.25-0.1-1.65 1.067 0.667 1.883 1.417 2.45 2.25 0.1-0.733 0.05-1.483-0.15-2.25-0.033-0.2-0.233-0.917-0.6-2.15 1.1 0.767 2.1 1.75 3 2.95 1 1.267 1.65 2.517 1.95 3.75 0.033-0.733 0.017-1.817-0.05-3.25 0.7 1.133 1.15 2.517 1.35 4.15 0.1 0.867 0.15 2.367 0.15 4.5 0.3-0.434 0.5-0.917 0.6-1.45 0.367 0.4 0.45 1.1 0.25 2.1-0.167 0.833-0.433 1.567-0.8 2.2zm-29.4-2.65c0.033 0.4-0.033 0.917-0.2 1.55l1.05 0.05c0.3-0.833 0.283-1.933-0.05-3.3l-0.8 1.7z" fill="#362835"/> <path d="m1.05 4.55 0.2 0.3 3.15 5.5c0.167 0.833 0.883 1.383 2.15 1.65 1.167 0.267 2.317 0.233 3.45-0.1l-0.2 0.15-3.45 5.65c-0.1 0.333-0.35 0.717-0.75 1.15-0.434 0.433-0.7 0.8-0.8 1.1 1.333-0.5 2.267-0.983 2.8-1.45-0.1 0.433-0.383 0.9-0.85 1.4l-1.15 1.15c2.033-0.367 4.133-1.183 6.3-2.45 0.934-0.5 1.967-1.184 3.1-2.05v-0.05l0.55-0.5c0.167-0.167 0.583-0.75 1.25-1.75l0.65-0.9 0.05-0.05c0.2-0.3 0.367-0.517 0.5-0.65-0.8 0.133-1.333 0.05-1.6-0.25-0.4-0.5-0.7-0.933-0.9-1.3l0.05-0.3 0.05-0.1-1.55 0.25c-1.333 0.133-2.316 0.283-2.95 0.45l0.25-0.15 1.25-1.4c1.1-1.4 1.667-2.934 1.7-4.6l0.05-1.45c-0.233 0.667-0.6 1.233-1.1 1.7-0.5 0.5-1.05 0.833-1.65 1l-8.9-4.1c0.833-1.833 2.2-3.15 4.1-3.95 1.633-0.7 3.5-0.983 5.6-0.85-0.733-0.033-1.917 0.383-3.55 1.25 2.533 0 4.25 0.633 5.15 1.9l0.2 0.35-0.2-0.85c-0.133-0.433-0.417-0.883-0.85-1.35-0.5-0.5-0.867-0.883-1.1-1.15 0.633-0.133 1.6-0.183 2.9-0.15-1.733-0.933-3.95-1.067-6.65-0.4-0.6 0.167-1.35 0.433-2.25 0.8-1.3 0.533-2.333 1.25-3.1 2.15-0.434 0.5-0.8 1.184-1.1 2.05-0.4 1.133-0.683 1.867-0.85 2.2l0.05 0.15zm20.5-3.9 0.8-2-1.8 1.75 0.05 0.5 0.95-0.25zm-2.3-4.825 0.1 2.875c0.1-0.3 0.333-0.684 0.7-1.15 0.267 0.6 0.417 1.317 0.45 2.15v0.15c0.067-0.467 0.1-0.9 0.1-1.3l-0.2-1.75-0.45-1.6-0.55 2.15-0.15-1.75v0.225zm-28.35-18.225c-0.133 0.1-0.267 0.2-0.4 0.3l-1.05 0.9-1 1 0.15-0.45c-0.434 0.233-0.967 0.65-1.6 1.25-1.3 1.267-2.5 2.883-3.6 4.85-0.867 1.533-1.533 3.233-2 5.1-0.5 1.2-0.933 2.367-1.3 3.5l-0.05 0.25c0.034-0.033 0.083-0.1 0.15-0.2l0.6-0.85c0-0.033 0.017-0.083 0.05-0.15 0.066-0.1 0.133-0.2 0.2-0.3 0.434-0.667 0.85-1.15 1.25-1.45-0.1 1.7-0.15 2.566-0.15 2.6 0.233-0.3 0.533-0.85 0.9-1.65 0.4 2.534 0.55 4.167 0.45 4.9-0.033 0.333-0.2 0.7-0.5 1.1l-1 1.65-0.05 0.1c0.3-0.4 0.617-0.716 0.95-0.95 1.434-1 2.85-1.233 4.25-0.7 1.3 0.533 2 1.5 2.1 2.9l0.8-1.7c1.1-2.167 1.867-4.067 2.3-5.7 0.167-0.5 0.35-1.217 0.55-2.15 0.333-1.6 0.517-2.817 0.55-3.65 0.066-0.733 0.167-1.983 0.3-3.75 0.033-0.367 0.05-0.733 0.05-1.1l-0.05-2.05c-0.033-0.167-0.067-0.35-0.1-0.55 0.033 0.133 0.067 0.267 0.1 0.4l2.1 3.75 0.45 0.45 5.45 15.05c0.233-0.3 0.95-1.033 2.15-2.2 0.867-0.867 1.5-1.7 1.9-2.5 0.3-0.633 0.784-1.65 1.45-3.05 0.3-1 0.45-2.133 0.45-3.4 0.033-1.333-0.1-2.467-0.4-3.4 0.434 0.4 0.967 1.2 1.6 2.4 0-1.4-0.066-2.283-0.2-2.65 0.833 0.2 1.517 0.75 2.05 1.65-0.033-0.8-0.533-1.833-1.5-3.1 1.1 0.167 2.133 0.833 3.1 2 0.033 0.1 0.733 1.184 2.1 3.25-0.133-0.667-0.65-2.25-1.55-4.75 1.067 0.2 2.167 1.067 3.3 2.6 0.833 1.167 1.55 2.483 2.15 3.95 0.167 0.333 0.3 0.7 0.4 1.1-0.5-2.233-1.217-4.2-2.15-5.9-1.133-2.066-2.35-3.767-3.65-5.1l-1.65-1.35 0.45 1.25-3.55-3.05c-0.7-0.633-1.617-1.383-2.75-2.25l-1.45-1.1 0.1 0.45c-1.133-0.4-2.05-1-2.75-1.8l-1.25-1.65-0.15 0.15-0.15-0.15c-0.167 0.267-0.6 0.8-1.3 1.6-0.4 0.4-0.833 0.733-1.3 1l-1.35 0.4 0.05-0.2-0.65 0.45c-0.5 0.233-1 0.483-1.5 0.75l-0.4 0.2c-0.1 1.233-0.067 2.517 0.1 3.85l-0.25-0.85c-0.267-0.667-0.55-1.066-0.85-1.2-0.2-0.1-0.65-0.133-1.35-0.1h-0.1zm5.8 25.55c-0.733-0.467-1.467-0.483-2.2-0.05-0.8 0.4-1.3 1.133-1.5 2.2l0.15 0.6 0.5 2.05c0.067 0.5-0.083 1.083-0.45 1.75-0.534 0.867-0.833 1.433-0.9 1.7 0.8-0.667 1.333-1.217 1.6-1.65-0.066 0.867-0.1 2.167-0.1 3.9 0.333-0.3 0.633-0.867 0.9-1.7 0.466 1.8 1.216 3.783 2.25 5.95-0.167-1.867-0.233-3.45-0.2-4.75 0.333 0.233 0.8 0.65 1.4 1.25 0.567 0.567 1.033 0.967 1.4 1.2-0.066-0.2-0.5-0.883-1.3-2.05-0.567-0.867-0.8-1.633-0.7-2.3 0.367 0.033 0.85 0.267 1.45 0.7-0.033-0.167-0.2-0.784-0.5-1.85-0.2-0.767-0.317-1.4-0.35-1.9-0.033-0.267-0.05-0.767-0.05-1.5 0-0.633-0.033-1.133-0.1-1.5l-0.1-0.4c-0.3-0.8-0.7-1.35-1.2-1.65z" fill="#251B23"/> <path d="m14.35 3.8c0.333-1 0.283-1.9-0.15-2.7l-0.2-0.35c-0.9-1.267-2.617-1.9-5.15-1.9 1.633-0.867 2.816-1.283 3.55-1.25-2.1-0.133-3.967 0.15-5.6 0.85-1.9 0.8-3.267 2.117-4.1 3.95l8.9 4.1c0.6-0.167 1.15-0.5 1.65-1 0.5-0.467 0.867-1.033 1.1-1.7zm-25.3-0.95c0.167-0.633 0.233-1.15 0.2-1.55-0.1-1.4-0.8-2.367-2.1-2.9-1.4-0.533-2.816-0.3-4.25 0.7-0.333 0.233-0.65 0.55-0.95 0.95-0.267 0.3-0.534 0.784-0.8 1.45-0.367 1.167-0.35 2.25 0.05 3.25l6.25 0.25 0.35 0.05c0.633-0.7 1.05-1.433 1.25-2.2z" fill="#090509"/> </g> </symbol> <symbol id="a" viewBox="-22.3 -41.75 46.75 70.05"> <use transform="translate(1.3501 -10.85)" x="-23.05" y="-30.9" width="46.15" height="61.85" xlink:href="#r"/> <use x="-22.3" y="-28.3" width="44.65" height="56.6" xlink:href="#y"/> <use transform="translate(-14.2 7.25)" x="-4.913" y="-9.128" width="9.115" height="14.068" xlink:href="#w"/> <use transform="translate(-13.9 11)" x="-8.15" y="-5.672" width="16.304" height="11.317" xlink:href="#u"/> <use transform="translate(7.2998 5.4502)" x="-6.3" y="-8.667" width="13.95" height="15.394" xlink:href="#x"/> <use transform="translate(6.5498 11.15)" x="-10.175" y="-6.444" width="20.425" height="12.908" xlink:href="#v"/> <use transform="translate(-1.9502 -12.1)" x="-7.543" y="-10.964" width="15.118" height="21.859" xlink:href="#s"/> <use transform="translate(-4.5498 -7.1001)" x="-10.045" y="-14.55" width="20.056" height="29.066" xlink:href="#t"/> </symbol> <use transform="matrix(1 0 0 -1 23.8 28.3)" x="-22.3" y="-41.75" width="46.75" height="70.05" xlink:href="#a"/> </svg>
